<svg width="66" height="66" viewBox="0 0 66 66" fill="none" xmlns="http://www.w3.org/2000/svg">
<path fill-rule="evenodd" clip-rule="evenodd" d="M0 2.10132C0 0.839304 1.08941 -0.137666 2.32752 0.0159251C7.94295 0.712539 22.5426 2.38891 33 2.38891C43.4574 2.38891 58.057 0.712539 63.6725 0.0159253C64.9106 -0.137666 66 0.839304 66 2.10132V47.2196C66 48.8004 65.1172 50.2455 63.7198 50.9524L34.8448 65.5594C33.6835 66.1469 32.3165 66.1469 31.1552 65.5594L2.28024 50.9524C0.882759 50.2455 0 48.8004 0 47.2196V2.10132ZM3.3 2.79582C3.44239 2.79582 3.55781 2.9126 3.55781 3.05665V4.11899C3.55781 4.26305 3.44239 4.37983 3.3 4.37983C3.15761 4.37983 3.04219 4.26305 3.04219 4.11899V3.05665C3.04219 2.9126 3.15761 2.79582 3.3 2.79582ZM62.7 2.79582C62.8424 2.79582 62.9578 2.9126 62.9578 3.05665V4.11901C62.9578 4.26306 62.8424 4.37984 62.7 4.37984C62.5576 4.37984 62.4422 4.26306 62.4422 4.11901V3.05665C62.4422 2.9126 62.5576 2.79582 62.7 2.79582ZM3.3 5.98284C3.44239 5.98284 3.55781 6.09962 3.55781 6.24367V8.36835C3.55781 8.51241 3.44239 8.62919 3.3 8.62919C3.15761 8.62919 3.04219 8.51241 3.04219 8.36835V6.24367C3.04219 6.09962 3.15761 5.98284 3.3 5.98284ZM62.7 5.98284C62.8424 5.98284 62.9578 6.09963 62.9578 6.24368V8.36836C62.9578 8.51242 62.8424 8.6292 62.7 8.6292C62.5576 8.6292 62.4422 8.51242 62.4422 8.36836V6.24368C62.4422 6.09963 62.5576 5.98284 62.7 5.98284ZM3.3 10.2322C3.44239 10.2322 3.55781 10.349 3.55781 10.493V12.6177C3.55781 12.7618 3.44239 12.8786 3.3 12.8786C3.15761 12.8786 3.04219 12.7618 3.04219 12.6177V10.493C3.04219 10.349 3.15761 10.2322 3.3 10.2322ZM62.7 10.2322C62.8424 10.2322 62.9578 10.349 62.9578 10.493V12.6177C62.9578 12.7618 62.8424 12.8786 62.7 12.8786C62.5576 12.8786 62.4422 12.7618 62.4422 12.6177V10.493C62.4422 10.349 62.5576 10.2322 62.7 10.2322ZM3.3 14.4816C3.44239 14.4816 3.55781 14.5983 3.55781 14.7424V16.8671C3.55781 17.0111 3.44239 17.1279 3.3 17.1279C3.15761 17.1279 3.04219 17.0111 3.04219 16.8671V14.7424C3.04219 14.5983 3.15761 14.4816 3.3 14.4816ZM62.7 14.4816C62.8424 14.4816 62.9578 14.5983 62.9578 14.7424V16.8671C62.9578 17.0111 62.8424 17.1279 62.7 17.1279C62.5576 17.1279 62.4422 17.0111 62.4422 16.8671V14.7424C62.4422 14.5983 62.5576 14.4816 62.7 14.4816ZM3.3 18.7309C3.44239 18.7309 3.55781 18.8477 3.55781 18.9918V21.1164C3.55781 21.2605 3.44239 21.3773 3.3 21.3773C3.15761 21.3773 3.04219 21.2605 3.04219 21.1164V18.9918C3.04219 18.8477 3.15761 18.7309 3.3 18.7309ZM62.7 18.7309C62.8424 18.7309 62.9578 18.8477 62.9578 18.9918V21.1164C62.9578 21.2605 62.8424 21.3773 62.7 21.3773C62.5576 21.3773 62.4422 21.2605 62.4422 21.1164V18.9918C62.4422 18.8477 62.5576 18.7309 62.7 18.7309ZM3.3 22.9803C3.44239 22.9803 3.55781 23.0971 3.55781 23.2411V25.3658C3.55781 25.5099 3.44239 25.6266 3.3 25.6266C3.15761 25.6266 3.04219 25.5099 3.04219 25.3658V23.2411C3.04219 23.0971 3.15761 22.9803 3.3 22.9803ZM62.7 22.9803C62.8424 22.9803 62.9578 23.0971 62.9578 23.2411V25.3658C62.9578 25.5099 62.8424 25.6266 62.7 25.6266C62.5576 25.6266 62.4422 25.5099 62.4422 25.3658V23.2411C62.4422 23.0971 62.5576 22.9803 62.7 22.9803ZM62.7 27.2296C62.8424 27.2296 62.9578 27.3464 62.9578 27.4905V29.6152C62.9578 29.7592 62.8424 29.876 62.7 29.876C62.5576 29.876 62.4422 29.7592 62.4422 29.6152V27.4905C62.4422 27.3464 62.5576 27.2296 62.7 27.2296ZM3.3 27.2296C3.44239 27.2296 3.55781 27.3464 3.55781 27.4905V29.6152C3.55781 29.7592 3.44239 29.876 3.3 29.876C3.15761 29.876 3.04219 29.7592 3.04219 29.6152V27.4905C3.04219 27.3464 3.15761 27.2296 3.3 27.2296ZM62.7 31.479C62.8424 31.479 62.9578 31.5958 62.9578 31.7398V33.8645C62.9578 34.0086 62.8424 34.1254 62.7 34.1254C62.5576 34.1254 62.4422 34.0086 62.4422 33.8645V31.7398C62.4422 31.5958 62.5576 31.479 62.7 31.479ZM3.3 31.479C3.44239 31.479 3.55781 31.5958 3.55781 31.7398V33.8645C3.55781 34.0086 3.44239 34.1254 3.3 34.1254C3.15761 34.1254 3.04219 34.0086 3.04219 33.8645V31.7398C3.04219 31.5958 3.15761 31.479 3.3 31.479ZM62.7 35.7284C62.8424 35.7284 62.9578 35.8451 62.9578 35.9892V38.1139C62.9578 38.2579 62.8424 38.3747 62.7 38.3747C62.5576 38.3747 62.4422 38.2579 62.4422 38.1139V35.9892C62.4422 35.8451 62.5576 35.7284 62.7 35.7284ZM3.3 35.7284C3.44239 35.7284 3.55781 35.8451 3.55781 35.9892V38.1139C3.55781 38.2579 3.44239 38.3747 3.3 38.3747C3.15761 38.3747 3.04219 38.2579 3.04219 38.1139V35.9892C3.04219 35.8451 3.15761 35.7284 3.3 35.7284ZM62.7 39.9777C62.8424 39.9777 62.9578 40.0945 62.9578 40.2386V42.3632C62.9578 42.5073 62.8424 42.6241 62.7 42.6241C62.5576 42.6241 62.4422 42.5073 62.4422 42.3632V40.2386C62.4422 40.0945 62.5576 39.9777 62.7 39.9777ZM3.3 39.9777C3.44239 39.9777 3.55781 40.0945 3.55781 40.2386V42.3632C3.55781 42.5073 3.44239 42.6241 3.3 42.6241C3.15761 42.6241 3.04219 42.5073 3.04219 42.3632V40.2386C3.04219 40.0945 3.15761 39.9777 3.3 39.9777ZM62.7 44.2271C62.8424 44.2271 62.9578 44.3439 62.9578 44.4879V45.5503C62.9578 45.9662 62.9003 46.3734 62.7911 46.7621C62.7522 46.9006 62.6096 46.981 62.4727 46.9417C62.3357 46.9023 62.2562 46.758 62.2951 46.6195C62.3914 46.2766 62.4422 45.9174 62.4422 45.5503V44.4879C62.4422 44.3439 62.5576 44.2271 62.7 44.2271ZM3.3 44.2271C3.44239 44.2271 3.55781 44.3439 3.55781 44.4879V45.5503C3.55781 45.9174 3.60859 46.2766 3.70488 46.6195C3.74379 46.758 3.66431 46.9023 3.52735 46.9417C3.39039 46.981 3.24781 46.9006 3.20889 46.7621C3.09972 46.3734 3.04219 45.9662 3.04219 45.5503V44.4879C3.04219 44.3439 3.15761 44.2271 3.3 44.2271ZM4.45185 48.4551C4.54791 48.3488 4.71098 48.3413 4.81608 48.4385C5.07609 48.679 5.37096 48.8856 5.69554 49.0498L6.60893 49.5118C6.73629 49.5763 6.78791 49.7329 6.72423 49.8618C6.66056 49.9906 6.50569 50.0429 6.37834 49.9784L5.46495 49.5164C5.09724 49.3304 4.76299 49.0962 4.46821 48.8236C4.36311 48.7264 4.35578 48.5614 4.45185 48.4551ZM61.5482 48.4551C61.6442 48.5614 61.6369 48.7264 61.5318 48.8236C61.237 49.0962 60.9028 49.3304 60.5351 49.5164L59.6217 49.9784C59.4943 50.0429 59.3394 49.9906 59.2758 49.8618C59.2121 49.7329 59.2637 49.5763 59.3911 49.5118L60.3045 49.0498C60.629 48.8856 60.9239 48.679 61.1839 48.4385C61.289 48.3413 61.4521 48.3488 61.5482 48.4551ZM57.9102 50.5526C57.9739 50.6814 57.9222 50.8381 57.7949 50.9025L55.9681 51.8267C55.8407 51.8911 55.6859 51.8389 55.6222 51.71C55.5585 51.5812 55.6101 51.4245 55.7375 51.3601L57.5643 50.4359C57.6916 50.3715 57.8465 50.4237 57.9102 50.5526ZM8.08983 50.5526C8.15351 50.4237 8.30837 50.3715 8.43572 50.4359L10.2625 51.3601C10.3899 51.4245 10.4415 51.5812 10.3778 51.71C10.3141 51.8389 10.1593 51.8911 10.0319 51.8267L8.20513 50.9025C8.07777 50.8381 8.02615 50.6814 8.08983 50.5526ZM11.7434 52.4008C11.8071 52.272 11.9619 52.2198 12.0893 52.2842L13.9161 53.2083C14.0434 53.2727 14.0951 53.4294 14.0314 53.5582C13.9677 53.6871 13.8128 53.7393 13.6855 53.6749L11.8587 52.7508C11.7313 52.6864 11.6797 52.5297 11.7434 52.4008ZM54.2566 52.4008C54.3203 52.5297 54.2687 52.6864 54.1413 52.7508L52.3145 53.6749C52.1872 53.7393 52.0323 53.6871 51.9686 53.5582C51.9049 53.4294 51.9566 53.2727 52.0839 53.2083L53.9107 52.2842C54.0381 52.2197 54.1929 52.272 54.2566 52.4008ZM15.397 54.2491C15.4606 54.1202 15.6155 54.068 15.7429 54.1324L17.5696 55.0565C17.697 55.1209 17.7486 55.2776 17.6849 55.4065C17.6213 55.5353 17.4664 55.5875 17.3391 55.5231L15.5123 54.599C15.3849 54.5346 15.3333 54.3779 15.397 54.2491ZM50.603 54.2491C50.6667 54.3779 50.6151 54.5346 50.4877 54.599L48.6609 55.5231C48.5336 55.5875 48.3787 55.5353 48.3151 55.4065C48.2514 55.2776 48.303 55.1209 48.4304 55.0565L50.2571 54.1324C50.3845 54.068 50.5394 54.1202 50.603 54.2491ZM19.0505 56.0973C19.1142 55.9684 19.2691 55.9162 19.3964 55.9806L21.2232 56.9047C21.3506 56.9692 21.4022 57.1258 21.3385 57.2547C21.2748 57.3835 21.12 57.4358 20.9926 57.3713L19.1658 56.4472C19.0385 56.3828 18.9869 56.2261 19.0505 56.0973ZM46.9495 56.0973C47.0131 56.2261 46.9615 56.3828 46.8342 56.4472L45.0074 57.3713C44.88 57.4358 44.7252 57.3835 44.6615 57.2547C44.5978 57.1258 44.6494 56.9692 44.7768 56.9047L46.6036 55.9806C46.7309 55.9162 46.8858 55.9684 46.9495 56.0973ZM22.7041 57.9455C22.7678 57.8167 22.9227 57.7644 23.05 57.8289L24.8768 58.753C25.0041 58.8174 25.0558 58.9741 24.9921 59.1029C24.9284 59.2318 24.7735 59.284 24.6462 59.2196L22.8194 58.2955C22.6921 58.231 22.6404 58.0744 22.7041 57.9455ZM43.2959 57.9455C43.3596 58.0744 43.3079 58.231 43.1806 58.2955L41.3538 59.2196C41.2264 59.284 41.0716 59.2318 41.0079 59.1029C40.9442 58.9741 40.9959 58.8174 41.1232 58.753L42.95 57.8289C43.0773 57.7644 43.2322 57.8167 43.2959 57.9455ZM26.3577 59.7937C26.4214 59.6649 26.5762 59.6127 26.7036 59.6771L28.5304 60.6012C28.6577 60.6656 28.7093 60.8223 28.6457 60.9512C28.582 61.08 28.4271 61.1322 28.2998 61.0678L26.473 60.1437C26.3456 60.0793 26.294 59.9226 26.3577 59.7937ZM39.6423 59.7937C39.706 59.9226 39.6544 60.0793 39.527 60.1437L37.7002 61.0678C37.5729 61.1322 37.418 61.08 37.3543 60.9512C37.2907 60.8223 37.3423 60.6656 37.4696 60.6012L39.2964 59.6771C39.4238 59.6127 39.5786 59.6649 39.6423 59.7937ZM30.0113 61.642C30.0749 61.5131 30.2298 61.4609 30.3571 61.5253L31.2705 61.9874C31.541 62.1242 31.8232 62.227 32.1115 62.2958C32.2501 62.3289 32.3359 62.4694 32.3032 62.6096C32.2705 62.7498 32.1316 62.8366 31.993 62.8035C31.6663 62.7255 31.3464 62.609 31.0399 62.454L30.1265 61.9919C29.9992 61.9275 29.9476 61.7708 30.0113 61.642ZM35.9887 61.642C36.0524 61.7708 36.0008 61.9275 35.8734 61.9919L34.9601 62.454C34.6536 62.609 34.3337 62.7255 34.007 62.8035C33.8684 62.8366 33.7295 62.7498 33.6968 62.6096C33.6641 62.4694 33.7499 62.3289 33.8885 62.2958C34.1768 62.227 34.459 62.1242 34.7295 61.9874L35.6428 61.5253C35.7702 61.4609 35.9251 61.5131 35.9887 61.642ZM24.75 26.2578L22 20.6932C21.2437 20.6932 20.5963 20.9656 20.0578 21.5105C19.5193 22.0554 19.25 22.7103 19.25 23.4755V40.1691C19.25 40.9343 19.5193 41.5893 20.0578 42.1341C20.5963 42.679 21.2437 42.9514 22 42.9514H44C44.7562 42.9514 45.4036 42.679 45.9422 42.1341C46.4807 41.5893 46.75 40.9343 46.75 40.1691V23.4755C46.75 22.7103 46.4807 22.0554 45.9422 21.5105C45.4036 20.9656 44.7562 20.6932 44 20.6932H39.875L42.625 26.2578H38.5L35.75 20.6932H33L35.75 26.2578H31.625L28.875 20.6932H26.125L28.875 26.2578H24.75Z" fill="white"/>
</svg>
